<svg width="30" height="30" viewBox="0 0 30 30" fill="none" xmlns="http://www.w3.org/2000/svg">
<g clip-path="url(#clip0_23_365)">
<path d="M6.95625 14.0625L10.4362 7.9725C10.6078 7.67156 10.9322 7.4775 11.2762 7.5C11.6222 7.51031 11.9344 7.70906 12.0891 8.01844L17.8678 19.5769L20.7487 14.535C20.9156 14.2425 21.2259 14.0625 21.5625 14.0625H29.0625V4.6875C29.0625 2.61656 27.3834 0.9375 25.3125 0.9375H4.6875C2.61656 0.9375 0.9375 2.61656 0.9375 4.6875V14.0625H6.95625Z" fill="#01A2E8"/>
<path d="M22.1062 15.9375L18.6263 22.0275C18.4594 22.32 18.1481 22.5 17.8125 22.5H17.7863C17.4403 22.4897 17.1281 22.2909 16.9734 21.9815L11.1947 10.4231L8.31375 15.465C8.14688 15.7575 7.83656 15.9375 7.5 15.9375H0.9375V25.3125C0.9375 27.3834 2.61656 29.0625 4.6875 29.0625H25.3125C27.3834 29.0625 29.0625 27.3834 29.0625 25.3125V15.9375H22.1062Z" fill="#01A2E8"/>
</g>
<defs>
<clipPath id="clip0_23_365">
<rect width="30" height="30" fill="white"/>
</clipPath>
</defs>
</svg>
