<svg width="30" height="31" viewBox="0 0 30 31" fill="none" xmlns="http://www.w3.org/2000/svg">
<path d="M5.51238 6.29815C5.26373 6.29815 5.01133 6.23222 4.78529 6.0966C4.11659 5.6935 3.90185 4.82513 4.30307 4.15644C5.15072 2.74935 6.69719 1.87534 8.33974 1.87534H11.6361C12.3576 1.87534 13.0263 1.4534 13.3371 0.803538C13.6742 0.100936 14.5162 -0.198565 15.2207 0.138609C15.9252 0.475783 16.2228 1.31966 15.8856 2.02226C15.1058 3.64974 13.4388 4.70081 11.6361 4.70081H8.33974C7.67292 4.70081 7.06827 5.04175 6.72545 5.61438C6.45985 6.05328 5.99082 6.29815 5.51238 6.29815Z" fill="#01A2E8"/>
<path d="M29.1806 9.53992C28.6796 9.31012 28.0919 9.38923 27.6718 9.74524L20.5817 15.771V10.8208C20.5817 10.2708 20.2615 9.76973 19.7605 9.53804C19.2613 9.30823 18.6717 9.38735 18.2535 9.74336L9.40792 17.2723L8.93136 10.5853C8.80892 8.86934 7.36416 7.52441 5.6425 7.52441H4.44073C2.71907 7.52441 1.27619 8.86934 1.15187 10.5853L0.00849666 26.5964C-0.0574311 27.5062 0.26279 28.4103 0.882511 29.0772C1.50412 29.744 2.38378 30.1282 3.29547 30.1282H26.7036C28.5213 30.1282 30 28.6496 30 26.8318V10.8227C30 10.2727 29.6798 9.77161 29.1806 9.53992ZM15.4017 24.0083H14.4599C13.68 24.0083 13.0471 23.3753 13.0471 22.5955C13.0471 21.8157 13.68 21.1828 14.4599 21.1828H15.4017C16.1815 21.1828 16.8144 21.8157 16.8144 22.5955C16.8144 23.3753 16.1815 24.0083 15.4017 24.0083ZM22.9363 24.0083H21.9945C21.2146 24.0083 20.5817 23.3753 20.5817 22.5955C20.5817 21.8157 21.2146 21.1828 21.9945 21.1828H22.9363C23.7161 21.1828 24.349 21.8157 24.349 22.5955C24.349 23.3753 23.7161 24.0083 22.9363 24.0083Z" fill="#01A2E8"/>
</svg>
