<svg width="30" height="30" viewBox="0 0 30 30" fill="none" xmlns="http://www.w3.org/2000/svg">
<path d="M22.4183 14.9154C26.095 14.6107 29.013 11.6927 29.317 8.01602C29.3783 7.05068 29.2683 6.08268 28.9936 5.15535L25.457 8.69135C25.1963 8.95135 24.7743 8.95135 24.5143 8.69135L20.6376 4.81468C20.377 4.55402 20.377 4.13202 20.6376 3.87202L24.1736 0.335351C23.2463 0.0620173 22.2783 -0.045316 21.3136 0.0173506C17.6363 0.321351 14.7183 3.23935 14.4136 6.91602C14.351 7.88202 14.459 8.85135 14.733 9.77935L0.696284 22.452C-0.169716 23.2347 -0.237049 24.5714 0.545617 25.4374C0.569617 25.464 0.593617 25.4893 0.618951 25.514L3.81428 28.71C4.64095 29.534 5.97895 29.5314 6.80295 28.7047C6.82762 28.6807 6.85095 28.6554 6.87428 28.63L19.5543 14.5934C20.4823 14.868 21.4523 14.9774 22.4183 14.9154Z" fill="#01A2E8"/>
<path d="M4.27507 7.99345H5.99907L10.1377 12.1321L12.2397 10.2341L7.99907 5.99345V4.26945C7.99907 4.09279 7.92907 3.92345 7.80374 3.79812L4.4704 0.464787C4.20974 0.20412 3.78774 0.20412 3.52774 0.464787L0.470402 3.52212C0.209736 3.78279 0.209736 4.20479 0.470402 4.46479L3.80374 7.79812C3.9284 7.92279 4.0984 7.99345 4.27507 7.99345Z" fill="#01A2E8"/>
<path d="M27.9918 22.2419L21.0365 16.2239C20.6925 16.1946 20.3498 16.1466 20.0105 16.0806L15.7305 20.8139L22.2478 27.9826C22.2925 28.0339 22.3398 28.0839 22.3898 28.1326C23.9778 29.7206 26.5525 29.7206 28.1411 28.1326C28.1898 28.0839 28.2371 28.0339 28.2831 27.9832C29.7871 26.3172 29.6565 23.7472 27.9918 22.2419Z" fill="#01A2E8"/>
</svg>
