<svg width="32" height="32" viewBox="0 0 32 32" fill="none" xmlns="http://www.w3.org/2000/svg">
<path d="M32 16.4446V14.6668C32 12.9512 30.6044 11.5557 28.8889 11.5557H20.8889C19.1733 11.5557 17.7778 12.9512 17.7778 14.6668V16.4446C17.7778 16.6899 17.8133 16.9246 17.8667 17.1521C16.7698 17.6339 16 18.7272 16 20.0001V21.7779C16 23.0508 16.7698 24.1441 17.8667 24.6259C17.8133 24.8534 17.7778 25.0899 17.7778 25.3334V27.1112C17.7778 28.8268 19.1733 30.2223 20.8889 30.2223H28.8889C30.6044 30.2223 32 28.8268 32 27.1112V25.3334C32 24.0606 31.2302 22.9672 30.1333 22.4854C30.1867 22.2579 30.2222 22.0214 30.2222 21.7779V20.0001C30.2222 19.7548 30.1867 19.5201 30.1333 19.2926C31.2302 18.8108 32 17.7174 32 16.4446ZM20.4444 14.6668C20.4444 14.4214 20.6436 14.2223 20.8889 14.2223H28.8889C29.1342 14.2223 29.3333 14.4214 29.3333 14.6668V16.4446C29.3333 16.6899 29.1342 16.889 28.8889 16.889H20.8889C20.6436 16.889 20.4444 16.6899 20.4444 16.4446V14.6668ZM29.3333 27.1112C29.3333 27.3566 29.1342 27.5557 28.8889 27.5557H20.8889C20.6436 27.5557 20.4444 27.3566 20.4444 27.1112V25.3334C20.4444 25.0881 20.6436 24.889 20.8889 24.889H28.8889C29.1342 24.889 29.3333 25.0881 29.3333 25.3334V27.1112Z" fill="white"/>
<path d="M25.3334 1.77783H6.66672C3.96628 1.77783 1.77783 3.96628 1.77783 6.66672V18.2223C1.77783 20.9227 3.96628 23.1112 6.66672 23.1112H12.8889C13.6249 23.1112 14.2223 22.5138 14.2223 21.7778C14.2223 21.0418 13.6249 20.4445 12.8889 20.4445H9.64272C9.11117 17.8365 7.0525 15.7778 4.4445 15.2463V9.6445C7.0525 9.11294 9.11117 7.05428 9.64272 4.44628H22.3556C22.9778 7.49694 25.6889 9.79561 28.9227 9.77961C29.6427 9.77605 30.2223 9.16628 30.2223 8.44628V6.6685C30.2223 3.96805 28.0338 1.77961 25.3334 1.77961V1.77783Z" fill="white"/>
<path d="M15.1113 15.8348V14.6668C15.1113 11.9539 16.9976 9.68722 19.522 9.07033C18.6313 8.14055 17.3851 7.55566 16.0002 7.55566C13.3033 7.55566 11.1113 9.74766 11.1113 12.4446C11.1113 14.5086 12.4002 16.2686 14.2118 16.9832C14.4678 16.5672 14.7576 16.1743 15.1113 15.8348Z" fill="white"/>
</svg>
