<svg width="30" height="32" viewBox="0 0 30 32" fill="none" xmlns="http://www.w3.org/2000/svg">
<path d="M24.281 5.00081L14.9477 2.01415C14.3272 1.81503 13.6712 1.81681 13.0526 2.01415L3.71744 5.00081C2.42322 5.41503 1.55566 6.60615 1.55566 7.96437V19.5555C1.55566 25.7919 10.3486 29.1181 13.0401 29.9893C13.3548 30.0906 13.6766 30.1421 14.0001 30.1421C14.3237 30.1421 14.6437 30.0924 14.9566 29.991C17.6517 29.1199 26.4446 25.7937 26.4446 19.5573V7.96437C26.4446 6.60615 25.5752 5.41503 24.281 5.00081ZM19.5148 12.8035L13.4757 20.8035C13.2481 21.1039 12.9032 21.2941 12.5263 21.3279C12.489 21.3315 12.4499 21.3333 12.4108 21.3333C12.0748 21.3333 11.7494 21.207 11.5023 20.9759L8.64189 18.3093C8.10322 17.8061 8.073 16.9635 8.57433 16.4248C9.07922 15.8861 9.92189 15.8577 10.4588 16.3573L12.2383 18.0159L17.3868 11.1964C17.8312 10.6097 18.6668 10.4924 19.2552 10.9368C19.8437 11.3813 19.9592 12.215 19.5148 12.8035Z" fill="white"/>
</svg>
