<svg width="32" height="32" viewBox="0 0 32 32" fill="none" xmlns="http://www.w3.org/2000/svg">
<path d="M17.3335 5.40533V2.66667H21.3335V0H10.6668V2.66667H14.6668V5.40533C8.30683 6.07467 3.3335 11.4667 3.3335 18C3.3335 24.984 9.01616 30.6667 16.0002 30.6667C22.9842 30.6667 28.6668 24.984 28.6668 18C28.6668 11.4667 23.6935 6.07333 17.3335 5.40533ZM16.0002 19.2187L10.1148 13.3333L12.0002 11.448L17.8855 17.3333L16.0002 19.2187Z" fill="white"/>
<path d="M25.6674 3.11414L23.7817 4.99976L28.6674 9.88539L30.553 7.99977L25.6674 3.11414Z" fill="white"/>
<path d="M6.33388 3.11412L1.44824 7.99976L3.33386 9.88537L8.2195 4.99974L6.33388 3.11412Z" fill="white"/>
</svg>
