<svg width="32" height="32" viewBox="0 0 32 32" fill="none" xmlns="http://www.w3.org/2000/svg">
<path d="M5.33317 26.6666C4.59984 26.6666 3.97206 26.4055 3.44984 25.8833C2.92761 25.361 2.6665 24.7333 2.6665 23.9999V7.99992C2.6665 7.26659 2.92761 6.63881 3.44984 6.11659C3.97206 5.59436 4.59984 5.33325 5.33317 5.33325H26.6665C27.3998 5.33325 28.0276 5.59436 28.5498 6.11659C29.0721 6.63881 29.3332 7.26659 29.3332 7.99992V23.9999C29.3332 24.7333 29.0721 25.361 28.5498 25.8833C28.0276 26.4055 27.3998 26.6666 26.6665 26.6666H5.33317ZM5.33317 23.9999H26.6665V10.6666H5.33317V23.9999ZM9.99984 22.6666L8.13317 20.7999L11.5665 17.3333L8.09984 13.8666L9.99984 11.9999L15.3332 17.3333L9.99984 22.6666ZM15.9998 22.6666V19.9999H23.9998V22.6666H15.9998Z" fill="white"/>
</svg>
