<svg width="37" height="27" viewBox="0 0 37 27" fill="none" xmlns="http://www.w3.org/2000/svg">
<path d="M28.62 27C24.1553 27 20.52 23.3669 20.52 18.9C20.52 14.4332 24.1553 10.8 28.62 10.8C33.0847 10.8 36.72 14.4332 36.72 18.9C36.72 23.3669 33.0847 27 28.62 27ZM28.62 14.04C25.9416 14.04 23.76 16.2195 23.76 18.9C23.76 21.5806 25.9416 23.76 28.62 23.76C31.2984 23.76 33.48 21.5806 33.48 18.9C33.48 16.2195 31.2984 14.04 28.62 14.04Z" fill="#01A2E8"/>
<path d="M8.1 27C3.63528 27 0 23.3669 0 18.9C0 14.4332 3.63528 10.8 8.1 10.8C9.89064 10.8 11.5884 11.3724 13.0097 12.4568C13.7203 12.9989 13.8586 14.0163 13.3164 14.7269C12.7764 15.4376 11.7612 15.578 11.0441 15.0336C10.1909 14.3835 9.17352 14.04 8.1 14.04C5.4216 14.04 3.24 16.2195 3.24 18.9C3.24 21.5806 5.4216 23.76 8.1 23.76C10.7784 23.76 12.96 21.5806 12.96 18.9C12.96 18.0058 13.6858 17.28 14.58 17.28C15.4742 17.28 16.2 18.0058 16.2 18.9C16.2 23.3669 12.5647 27 8.1 27Z" fill="#01A2E8"/>
<path d="M28.8385 5.3784C27.9637 5.55552 27.3956 6.41088 27.5727 7.28784C27.7499 8.16696 28.5966 8.72424 29.4843 8.5536C31.4888 8.14752 32.9425 6.36768 32.9425 4.32C32.9425 1.93752 31.005 0 28.6225 0H21.2655C20.7212 0 20.2158 0.27216 19.9134 0.72576C19.6131 1.17936 19.5613 1.75392 19.7751 2.25504L22.4946 8.64H15.7575L13.8783 4.22496C13.6235 3.6288 13.0359 3.24 12.3879 3.24H8.10682C7.21258 3.24 6.48682 3.96576 6.48682 4.86C6.48682 5.75424 7.21258 6.48 8.10682 6.48H11.3166L12.8264 10.0289L8.1349 16.187C7.51066 17.01 7.40698 18.0943 7.86706 19.021C8.32714 19.9454 9.25378 20.52 10.2863 20.52H16.7317C17.6389 20.52 18.4813 20.0686 18.9824 19.3104C19.4835 18.5522 19.5699 17.5997 19.2157 16.7616L17.1356 11.88H23.8727L27.1321 19.535C27.3956 20.1506 27.9939 20.52 28.6225 20.52C28.8363 20.52 29.0502 20.479 29.2575 20.3904C30.0805 20.0405 30.465 19.0879 30.1129 18.265L23.715 3.24H28.6203C29.2143 3.24 29.7003 3.72384 29.7003 4.32C29.7003 4.83192 29.3375 5.27688 28.8385 5.3784ZM11.3706 17.28L14.2844 13.4568L15.9131 17.28H11.3706Z" fill="#01A2E8"/>
</svg>
