<svg width="87" height="385" viewBox="0 0 87 385" fill="none" xmlns="http://www.w3.org/2000/svg">
<circle cx="43.5127" cy="42.5" r="41" fill="#D1ECFF" stroke="#01A2E8" stroke-width="3" stroke-dasharray="6 6"/>
<path d="M48.0131 45.1144L46.1274 47L55.3462 56.2188L57.2318 54.3332L48.0131 45.1144Z" fill="#01A2E8"/>
<path d="M41.3459 50.9998C35.4645 50.9998 30.6792 46.2145 30.6792 40.3332C30.6792 34.4518 35.4645 29.6665 41.3459 29.6665C47.2272 29.6665 52.0125 34.4518 52.0125 40.3332C52.0125 46.2145 47.2272 50.9998 41.3459 50.9998ZM41.3459 32.3332C36.9339 32.3332 33.3459 35.9212 33.3459 40.3332C33.3459 44.7452 36.9339 48.3332 41.3459 48.3332C45.7579 48.3332 49.3459 44.7452 49.3459 40.3332C49.3459 35.9212 45.7579 32.3332 41.3459 32.3332Z" fill="#01A2E8"/>
<path d="M41.346 45.6667C44.2915 45.6667 46.6794 43.2789 46.6794 40.3333C46.6794 37.3878 44.2915 35 41.346 35C38.4005 35 36.0127 37.3878 36.0127 40.3333C36.0127 43.2789 38.4005 45.6667 41.346 45.6667Z" fill="#01A2E8"/>
<rect x="40.5127" y="97" width="6" height="288" rx="3" fill="url(#paint0_linear_29_198)"/>
<defs>
<linearGradient id="paint0_linear_29_198" x1="43.5127" y1="97" x2="43.5127" y2="385" gradientUnits="userSpaceOnUse">
<stop stop-color="#01A2E8"/>
<stop offset="1" stop-color="white"/>
</linearGradient>
</defs>
</svg>
