<svg width="87" height="385" viewBox="0 0 87 385" fill="none" xmlns="http://www.w3.org/2000/svg">
<circle cx="43.4502" cy="42.5" r="41" fill="#D1ECFF" stroke="#01A2E8" stroke-width="3" stroke-dasharray="6 6"/>
<path d="M58.6168 45.3331V40.6665L55.4381 39.5451C55.2035 38.7678 54.8955 38.0225 54.5168 37.3211L55.9715 34.2798L52.6715 30.9798L49.6301 32.4345C48.9275 32.0558 48.1821 31.7478 47.4061 31.5131L46.2848 28.3345H41.6181L40.4968 31.5131C39.7195 31.7478 38.9741 32.0558 38.2728 32.4345L35.2315 30.9798L31.9315 34.2798L33.3861 37.3211C33.0075 38.0238 32.6995 38.7691 32.4648 39.5451L29.2861 40.6665V45.3331L32.4648 46.4545C32.6995 47.2318 33.0075 47.9771 33.3861 48.6785L31.9315 51.7198L35.2315 55.0198L38.2728 53.5651C38.9755 53.9438 39.7208 54.2518 40.4968 54.4865L41.6181 57.6651H46.2848L47.4061 54.4865C48.1835 54.2518 48.9288 53.9438 49.6301 53.5651L52.6715 55.0198L55.9715 51.7198L54.5168 48.6785C54.8955 47.9758 55.2035 47.2305 55.4381 46.4545L58.6168 45.3331ZM43.9501 48.3331C41.0088 48.3331 38.6168 45.9411 38.6168 42.9998C38.6168 40.0585 41.0088 37.6665 43.9501 37.6665C46.8915 37.6665 49.2835 40.0585 49.2835 42.9998C49.2835 45.9411 46.8915 48.3331 43.9501 48.3331Z" fill="#01A2E8"/>
<rect x="40.4502" y="97" width="6" height="288" rx="3" fill="url(#paint0_linear_29_191)"/>
<defs>
<linearGradient id="paint0_linear_29_191" x1="43.4502" y1="97" x2="43.4502" y2="385" gradientUnits="userSpaceOnUse">
<stop stop-color="#01A2E8"/>
<stop offset="1" stop-color="white"/>
</linearGradient>
</defs>
</svg>
