<svg width="87" height="385" viewBox="0 0 87 385" fill="none" xmlns="http://www.w3.org/2000/svg">
<circle cx="43.3877" cy="42.5" r="41" fill="#D1ECFF" stroke="#01A2E8" stroke-width="3" stroke-dasharray="6 6"/>
<path d="M46.533 49.0266C45.717 49.4461 44.8014 49.6666 43.8876 49.6666C42.9739 49.6666 42.0548 49.4444 41.2405 49.0248L34.1099 45.3555V51.8906C34.1099 55.0995 39.029 56.7795 43.8876 56.7795C48.7463 56.7795 53.6654 55.0995 53.6654 51.8906V45.3555L46.533 49.0266Z" fill="#01A2E8"/>
<path d="M57.6104 43.4019C57.5642 41.969 57.71 40.5379 57.9944 39.1317C58.0264 38.9005 58.11 38.7921 58.11 38.3334C58.11 37.265 57.5198 36.2961 56.5704 35.8072L45.3135 30.0117C44.4211 29.5512 43.3544 29.553 42.462 30.0117L31.2051 35.809C30.2557 36.2979 29.6655 37.265 29.6655 38.3334C29.6655 39.4019 30.2557 40.3708 31.2051 40.8597L42.462 46.6534C42.9082 46.8828 43.3971 46.9983 43.8877 46.9983C44.3784 46.9983 44.8673 46.8828 45.3135 46.6534L55.0042 41.665C54.9704 42.2712 54.9242 42.8774 54.9438 43.4854C54.9864 44.8579 55.1678 46.2339 55.4789 47.5761C55.6211 48.193 56.1704 48.609 56.7749 48.609C56.8762 48.609 56.9757 48.5983 57.0771 48.5734C57.7935 48.4081 58.2415 47.6917 58.0762 46.9752C57.806 45.8019 57.6477 44.6019 57.6104 43.4019Z" fill="#01A2E8"/>
<rect x="40.3877" y="97" width="6" height="288" rx="3" fill="url(#paint0_linear_29_184)"/>
<defs>
<linearGradient id="paint0_linear_29_184" x1="43.3877" y1="97" x2="43.3877" y2="385" gradientUnits="userSpaceOnUse">
<stop stop-color="#01A2E8"/>
<stop offset="1" stop-color="white"/>
</linearGradient>
</defs>
</svg>
